<svg xmlns="http://www.w3.org/2000/svg" viewBox="0 0 100 100">
  <rect width="100" height="100" fill="#FFFBEF"/>
  <path d="M15 44 C15 23 34 15 50 15 C66 15 85 23 85 44 Z" fill="#E8A85C"/>
  <ellipse cx="37" cy="31" rx="2.4" ry="1.3" fill="#fff"/>
  <ellipse cx="52" cy="25" rx="2.4" ry="1.3" fill="#fff"/>
  <ellipse cx="65" cy="32" rx="2.4" ry="1.3" fill="#fff"/>
  <path d="M14 45 q6 -7 12 0 t12 0 12 0 12 0 12 0 v4 H14 Z" fill="#6FBF59"/>
  <path d="M14 51 h72 v8 q-36 8 -72 0 Z" fill="#E0B050"/>
  <path d="M16 67 C16 80 30 86 50 86 C70 86 84 80 84 67 Z" fill="#E8A85C"/>
</svg>
